# xmcd
#
# Track frame offsets:
#	187
#	20832
#	37352
#	50647
#	69990
#	87077
#	101105
#	115500
#	125937
#	144962
#	159002
#	171862
#	187580
#
# Disc length: 2624 seconds
#
# Revision: 1
# Processed by: cddbd v1.4PL0 Copyright (c) Steve Scherf et al.
# Submitted via: audiograbber 1.82.02
#
DISCID=ac0a3e0d
DTITLE=Jerry Shelfer - Slipaway
DYEAR=1992
DGENRE=Country
TTITLE0=Took A Long Time
TTITLE1=Such A Fine Line
TTITLE2=You Don't Miss Your Water
TTITLE3=Stop
TTITLE4=Slip Away
TTITLE5=Loving Cup
TTITLE6=Love Happens
TTITLE7=Hold On
TTITLE8=Honky Tonk Life
TTITLE9=Did You Tell Her
TTITLE10=We Could Fall In Love
TTITLE11=Some Day
TTITLE12=All Day Long
EXTD=
EXTT0=
EXTT1=
EXTT2=
EXTT3=
EXTT4=
EXTT5=
EXTT6=
EXTT7=
EXTT8=
EXTT9=
EXTT10=
EXTT11=
EXTT12=
PLAYORDER=
